<svg width="1115" height="35" viewBox="0 0 1115 35" fill="none" xmlns="http://www.w3.org/2000/svg">
<path d="M301.879 0.795959H309.229V13.6234V19.8031V34.2223H301.879V0.795959Z" fill="#111111"/>
<path d="M289.462 12.0316C289.337 11.1889 289.056 10.4243 288.619 9.73764C288.182 9.0198 287.636 8.39559 286.98 7.86501C286.325 7.33444 285.576 6.9287 284.733 6.64781C283.922 6.3357 283.063 6.17965 282.158 6.17965C280.504 6.17965 279.1 6.50736 277.945 7.16278C276.79 7.78699 275.854 8.64527 275.136 9.73764C274.418 10.7988 273.888 12.016 273.544 13.3892C273.232 14.7625 273.076 16.1826 273.076 17.6495C273.076 19.0539 273.232 20.4272 273.544 21.7692C273.888 23.0801 274.418 24.2661 275.136 25.3272C275.854 26.3884 276.79 27.2467 277.945 27.9021C279.1 28.5263 280.504 28.8384 282.158 28.8384C284.405 28.8384 286.153 28.1518 287.402 26.7785C288.681 25.4052 289.462 23.595 289.742 21.3479H296.858C296.671 23.439 296.187 25.3272 295.407 27.0126C294.627 28.6979 293.597 30.1336 292.317 31.3196C291.038 32.5056 289.54 33.4107 287.823 34.0349C286.106 34.6591 284.218 34.9712 282.158 34.9712C279.599 34.9712 277.29 34.5343 275.23 33.6604C273.201 32.7553 271.484 31.5225 270.08 29.962C268.675 28.4014 267.599 26.5756 266.85 24.4845C266.101 22.3622 265.726 20.0839 265.726 17.6495C265.726 15.1526 266.101 12.8431 266.85 10.7208C267.599 8.56725 268.675 6.69462 270.08 5.10289C271.484 3.51116 273.201 2.26275 275.23 1.35765C277.29 0.45255 279.599 0 282.158 0C284 0 285.732 0.265288 287.355 0.795863C289.009 1.32644 290.476 2.1067 291.756 3.13664C293.066 4.13537 294.143 5.38379 294.986 6.88189C295.828 8.37998 296.359 10.0966 296.578 12.0316H289.462Z" fill="#111111"/>
<path d="M232.478 0.795959H239.781L253.732 23.2206H253.825V0.795959H260.707V34.2223H253.357L239.453 11.8444H239.359V34.2223H232.478V0.795959Z" fill="#111111"/>
<path d="M226.147 21.5821C226.147 26.1076 224.883 29.4783 222.355 31.6942C219.827 33.879 216.332 34.9713 211.869 34.9713C207.343 34.9713 203.832 33.879 201.335 31.6942C198.87 29.5095 197.637 26.1388 197.637 21.5821V0.795959H204.987V21.5821C204.987 22.4872 205.065 23.3767 205.221 24.2506C205.377 25.1244 205.705 25.9047 206.204 26.5913C206.703 27.2467 207.39 27.7929 208.264 28.2299C209.169 28.6356 210.371 28.8385 211.869 28.8385C214.49 28.8385 216.301 28.2611 217.299 27.1063C218.298 25.9203 218.797 24.0789 218.797 21.5821V0.795959H226.147V21.5821Z" fill="#111111"/>
<path d="M171.342 15.9174H179.394C181.079 15.9174 182.343 15.5429 183.186 14.7938C184.029 14.0448 184.45 12.8276 184.45 11.1422C184.45 9.51926 184.029 8.34887 183.186 7.63103C182.343 6.88198 181.079 6.50746 179.394 6.50746H171.342V15.9174ZM163.992 0.795959H182.016C183.514 0.795959 184.856 1.04564 186.042 1.54501C187.259 2.01317 188.289 2.66858 189.132 3.51126C190.006 4.35394 190.661 5.33707 191.098 6.46064C191.566 7.55301 191.8 8.739 191.8 10.0186C191.8 11.9849 191.379 13.6858 190.536 15.1215C189.725 16.5572 188.383 17.6496 186.51 18.3986V18.4922C187.415 18.7419 188.164 19.1321 188.757 19.6626C189.35 20.162 189.834 20.7706 190.208 21.4884C190.583 22.1751 190.848 22.9397 191.004 23.7824C191.192 24.6251 191.316 25.4678 191.379 26.3104C191.41 26.841 191.441 27.4652 191.472 28.1831C191.504 28.9009 191.55 29.6343 191.613 30.3834C191.707 31.1324 191.831 31.8503 191.987 32.5369C192.175 33.1923 192.44 33.7541 192.783 34.2223H185.433C185.027 33.1611 184.778 31.8971 184.684 30.4302C184.591 28.9633 184.45 27.5589 184.263 26.2168C184.013 24.469 183.483 23.1894 182.671 22.3779C181.86 21.5665 180.533 21.1607 178.692 21.1607H171.342V34.2223H163.992V0.795959Z" fill="#111111"/>
<path d="M151.576 12.0316C151.451 11.1889 151.17 10.4243 150.733 9.73764C150.296 9.0198 149.75 8.39559 149.095 7.86501C148.439 7.33444 147.69 6.9287 146.847 6.64781C146.036 6.3357 145.178 6.17965 144.273 6.17965C142.618 6.17965 141.214 6.50736 140.059 7.16278C138.904 7.78699 137.968 8.64527 137.25 9.73764C136.532 10.7988 136.002 12.016 135.659 13.3892C135.346 14.7625 135.19 16.1826 135.19 17.6495C135.19 19.0539 135.346 20.4272 135.659 21.7692C136.002 23.0801 136.532 24.2661 137.25 25.3272C137.968 26.3884 138.904 27.2467 140.059 27.9021C141.214 28.5263 142.618 28.8384 144.273 28.8384C146.52 28.8384 148.268 28.1518 149.516 26.7785C150.796 25.4052 151.576 23.595 151.857 21.3479H158.973C158.785 23.439 158.302 25.3272 157.521 27.0126C156.741 28.6979 155.711 30.1336 154.432 31.3196C153.152 32.5056 151.654 33.4107 149.937 34.0349C148.221 34.6591 146.332 34.9712 144.273 34.9712C141.713 34.9712 139.404 34.5343 137.344 33.6604C135.315 32.7553 133.599 31.5225 132.194 29.962C130.79 28.4014 129.713 26.5756 128.964 24.4845C128.215 22.3622 127.84 20.0839 127.84 17.6495C127.84 15.1526 128.215 12.8431 128.964 10.7208C129.713 8.56725 130.79 6.69462 132.194 5.10289C133.599 3.51116 135.315 2.26275 137.344 1.35765C139.404 0.45255 141.713 0 144.273 0C146.114 0 147.846 0.265288 149.469 0.795863C151.123 1.32644 152.59 2.1067 153.87 3.13664C155.181 4.13537 156.257 5.38379 157.1 6.88189C157.943 8.37998 158.473 10.0966 158.692 12.0316H151.576Z" fill="#111111"/>
<path d="M103.898 23.1269C103.898 24.2505 104.101 25.2024 104.507 25.9826C104.912 26.7629 105.443 27.4027 106.098 27.9021C106.785 28.3702 107.581 28.7292 108.486 28.9788C109.391 29.1973 110.327 29.3065 111.295 29.3065C111.95 29.3065 112.653 29.2597 113.402 29.1661C114.151 29.0413 114.853 28.8228 115.508 28.5107C116.164 28.1986 116.71 27.7772 117.147 27.2467C117.584 26.6849 117.802 25.9826 117.802 25.14C117.802 24.2349 117.506 23.5014 116.913 22.9396C116.351 22.3778 115.602 21.9097 114.666 21.5352C113.729 21.1606 112.668 20.8329 111.482 20.552C110.296 20.2711 109.095 19.959 107.877 19.6157C106.629 19.3036 105.412 18.9291 104.226 18.4921C103.04 18.024 101.979 17.431 101.042 16.7132C100.106 15.9953 99.3413 15.1058 98.7483 14.0447C98.1865 12.9523 97.9056 11.6415 97.9056 10.1122C97.9056 8.39559 98.2646 6.9131 98.9824 5.66468C99.7315 4.38506 100.699 3.3239 101.885 2.48122C103.071 1.63854 104.413 1.01434 105.911 0.6086C107.409 0.202867 108.907 0 110.405 0C112.153 0 113.823 0.202867 115.415 0.6086C117.038 0.983125 118.473 1.60733 119.722 2.48122C120.97 3.35511 121.953 4.47869 122.671 5.85194C123.42 7.19399 123.795 8.83253 123.795 10.7676H116.679C116.616 9.76884 116.398 8.94177 116.023 8.28635C115.68 7.63093 115.212 7.11596 114.619 6.74144C114.026 6.36692 113.339 6.10163 112.559 5.94558C111.81 5.78952 110.983 5.7115 110.078 5.7115C109.485 5.7115 108.892 5.77392 108.299 5.89876C107.706 6.0236 107.16 6.24207 106.66 6.55418C106.192 6.86628 105.802 7.25641 105.49 7.72456C105.178 8.19272 105.022 8.78572 105.022 9.50356C105.022 10.159 105.146 10.6896 105.396 11.0953C105.646 11.501 106.13 11.8755 106.847 12.2189C107.596 12.5622 108.611 12.9055 109.89 13.2488C111.201 13.5921 112.902 14.0291 114.993 14.5596C115.618 14.6845 116.476 14.9186 117.568 15.2619C118.692 15.574 119.8 16.0889 120.892 16.8068C121.984 17.5246 122.921 18.4921 123.701 19.7094C124.512 20.8953 124.918 22.4247 124.918 24.2973C124.918 25.8266 124.622 27.2467 124.029 28.5575C123.436 29.8683 122.546 31.0075 121.36 31.975C120.205 32.9113 118.754 33.6448 117.006 34.1754C115.29 34.7059 113.292 34.9712 111.014 34.9712C109.173 34.9712 107.378 34.7371 105.63 34.269C103.914 33.832 102.384 33.1298 101.042 32.1623C99.7315 31.1948 98.6859 29.962 97.9056 28.4639C97.1254 26.9658 96.7509 25.1868 96.7821 23.1269H103.898Z" fill="#111111"/>
<path d="M60.4659 23.1269C60.4659 24.2505 60.6688 25.2024 61.0745 25.9826C61.4802 26.7629 62.0108 27.4027 62.6662 27.9021C63.3529 28.3702 64.1487 28.7292 65.0538 28.9788C65.9589 29.1973 66.8952 29.3065 67.8628 29.3065C68.5182 29.3065 69.2204 29.2597 69.9695 29.1661C70.7185 29.0413 71.4208 28.8228 72.0762 28.5107C72.7316 28.1986 73.2778 27.7772 73.7147 27.2467C74.1517 26.6849 74.3701 25.9826 74.3701 25.14C74.3701 24.2349 74.0736 23.5014 73.4806 22.9396C72.9188 22.3778 72.1698 21.9097 71.2335 21.5352C70.2972 21.1606 69.236 20.8329 68.05 20.552C66.864 20.2711 65.6624 19.959 64.4452 19.6157C63.1968 19.3036 61.9796 18.9291 60.7936 18.4921C59.6076 18.024 58.5465 17.431 57.6102 16.7132C56.6738 15.9953 55.9092 15.1058 55.3162 14.0447C54.7544 12.9523 54.4735 11.6415 54.4735 10.1122C54.4735 8.39559 54.8324 6.9131 55.5503 5.66468C56.2993 4.38506 57.2668 3.3239 58.4528 2.48122C59.6388 1.63854 60.9809 1.01434 62.479 0.6086C63.9771 0.202867 65.4752 0 66.9733 0C68.7211 0 70.3908 0.202867 71.9825 0.6086C73.6055 0.983125 75.0412 1.60733 76.2896 2.48122C77.538 3.35511 78.5211 4.47869 79.2389 5.85194C79.988 7.19399 80.3625 8.83253 80.3625 10.7676H73.2466C73.1841 9.76884 72.9657 8.94177 72.5911 8.28635C72.2478 7.63093 71.7797 7.11596 71.1867 6.74144C70.5937 6.36692 69.907 6.10163 69.1268 5.94558C68.3777 5.78952 67.5507 5.7115 66.6456 5.7115C66.0526 5.7115 65.4596 5.77392 64.8666 5.89876C64.2736 6.0236 63.7274 6.24207 63.228 6.55418C62.7599 6.86628 62.3697 7.25641 62.0576 7.72456C61.7455 8.19272 61.5895 8.78572 61.5895 9.50356C61.5895 10.159 61.7143 10.6896 61.964 11.0953C62.2137 11.501 62.6975 11.8755 63.4153 12.2189C64.1643 12.5622 65.1787 12.9055 66.4583 13.2488C67.7691 13.5921 69.4701 14.0291 71.5612 14.5596C72.1854 14.6845 73.0437 14.9186 74.1361 15.2619C75.2596 15.574 76.3676 16.0889 77.46 16.8068C78.5523 17.5246 79.4886 18.4921 80.2689 19.7094C81.0804 20.8953 81.4861 22.4247 81.4861 24.2973C81.4861 25.8266 81.1896 27.2467 80.5966 28.5575C80.0036 29.8683 79.1141 31.0075 77.9281 31.975C76.7733 32.9113 75.322 33.6448 73.5743 34.1754C71.8577 34.7059 69.8602 34.9712 67.5819 34.9712C65.7405 34.9712 63.9459 34.7371 62.1981 34.269C60.4815 33.832 58.9522 33.1298 57.6102 32.1623C56.2993 31.1948 55.2538 29.962 54.4735 28.4639C53.6933 26.9658 53.3187 25.1868 53.3499 23.1269H60.4659Z" fill="#111111"/>
<path d="M42.3794 0.795959H49.0272V7.95874C49.0584 8.98868 48.9024 9.95621 48.559 10.8613C48.2469 11.7664 47.7944 12.5623 47.2014 13.2489C46.6084 13.9355 45.8906 14.5129 45.0479 14.9811C44.2364 15.418 43.3469 15.6989 42.3794 15.8238V12.7339C43.5654 12.3282 44.3769 11.7352 44.8138 10.9549C45.2508 10.1435 45.4692 9.16034 45.4692 8.00556H42.3794V0.795959Z" fill="#111111"/>
<path d="M21.2036 6.97561H11.1851V0.795959H38.5722V6.97561H28.5536V34.2223H21.2036V6.97561Z" fill="#111111"/>
<path d="M0 0.795959H7.35004V34.2223H0V0.795959Z" fill="#111111"/>
<path d="M1088.79 1.00006H1113.79V7.17972H1096.14V14.3425H1112.34V20.054H1096.14V28.2467H1114.17V34.4264H1088.79V1.00006Z" fill="#111111"/>
<path d="M1046.32 1.00006H1056.67L1064.48 23.9865H1064.58L1071.97 1.00006H1082.32V34.4264H1075.44V10.7377H1075.34L1067.15 34.4264H1061.49L1053.29 10.9718H1053.2V34.4264H1046.32V1.00006Z" fill="#111111"/>
<path d="M1032.51 1.00006H1039.86V34.4264H1032.51V1.00006Z" fill="#111111"/>
<path d="M1011.29 7.17972H1001.27V1.00006H1028.66V7.17972H1018.64V34.4264H1011.29V7.17972Z" fill="#111111"/>
<path d="M960.506 1.00006H985.506V7.17972H967.856V14.3425H984.055V20.054H967.856V28.2467H985.88V34.4264H960.506V1.00006Z" fill="#111111"/>
<path d="M946.7 1.00006H954.05V34.4264H946.7V1.00006Z" fill="#111111"/>
<path d="M932.879 13.8275V1.00006H940.229V34.4264H932.879V20.0072V13.8275Z" fill="#111111"/>
<path d="M306 21L310.002 17L314.345 12.6569C317.469 9.53266 322.535 9.53266 325.659 12.6569L334.345 21.3431C337.469 24.4673 342.535 24.4673 345.659 21.3431L354.345 12.6568C357.469 9.53265 362.535 9.53266 365.659 12.6568L374.345 21.3432C377.469 24.4673 382.535 24.4673 385.659 21.3431L394.345 12.6568C397.469 9.53265 402.535 9.53266 405.659 12.6569L414.345 21.3431C417.469 24.4673 422.535 24.4673 425.659 21.3431L434.345 12.6569C437.469 9.53267 442.535 9.53266 445.659 12.6569L454.345 21.3432C457.469 24.4673 462.535 24.4673 465.659 21.3431L474.345 12.6568C477.469 9.53265 482.535 9.53266 485.659 12.6569L494.345 21.3432C497.469 24.4673 502.535 24.4673 505.659 21.3431L514.345 12.6568C517.469 9.53265 522.535 9.53266 525.659 12.6569L534.345 21.3432C537.469 24.4673 542.535 24.4673 545.659 21.3431L554.345 12.6568C557.469 9.53265 562.535 9.53265 565.659 12.6568L574.345 21.3432C577.469 24.4674 582.535 24.4673 585.659 21.3432L594.345 12.6568C597.469 9.53265 602.535 9.53266 605.659 12.6569L614.345 21.3432C617.469 24.4673 622.535 24.4673 625.659 21.3431L634.345 12.6568C637.469 9.53265 642.535 9.53266 645.659 12.6569L654.345 21.3432C657.469 24.4673 662.535 24.4673 665.659 21.3431L674.345 12.6568C677.469 9.53265 682.535 9.53266 685.659 12.6569L694.345 21.3432C697.469 24.4673 702.535 24.4673 705.659 21.3431L714.345 12.6568C717.469 9.53265 722.535 9.53266 725.659 12.6569L734.345 21.3432C737.469 24.4673 742.535 24.4673 745.659 21.3431L754.345 12.6568C757.469 9.53265 762.535 9.53266 765.659 12.6569L774.345 21.3432C777.469 24.4673 782.535 24.4673 785.659 21.3431L794.345 12.6569C797.469 9.53266 802.535 9.53266 805.659 12.6569L814.345 21.3431C817.469 24.4673 822.535 24.4673 825.659 21.3432L834.345 12.6568C837.469 9.53265 842.535 9.53265 845.659 12.6568L854.345 21.3432C857.469 24.4673 862.535 24.4673 865.659 21.3431L874.345 12.6568C877.469 9.53265 882.535 9.53266 885.659 12.6569L894.345 21.3432C897.469 24.4673 902.535 24.4673 905.659 21.3431L914.345 12.6568C917.469 9.53265 922.535 9.53266 925.659 12.6569L936 22.998" stroke="#111111" stroke-width="8"/>
</svg>
