<svg width="60" height="60" viewBox="0 0 60 60" fill="none" xmlns="http://www.w3.org/2000/svg">
<rect x="2" y="22" width="4" height="15" fill="black"/>
<path d="M56.5 31.084L54.5743 29.1583L52.4808 27.0648C50.9749 25.5589 48.5334 25.5589 47.0275 27.0648L42.8406 31.2517C41.3347 32.7576 38.8931 32.7576 37.3872 31.2517L33.2003 27.0648C31.6944 25.5589 29.2529 25.5589 27.747 27.0648L23.56 31.2517C22.0541 32.7576 19.6126 32.7576 18.1067 31.2517L13.9198 27.0648C12.4139 25.5589 9.97233 25.5589 8.46643 27.0648L3.49984 32.0314" stroke="black" stroke-width="3.8561"/>
<rect width="4" height="15" transform="matrix(-1 0 0 1 58.9995 22)" fill="black"/>
</svg>
